<svg xmlns="http://www.w3.org/2000/svg" width="24" height="24" viewBox="0 0 24 24">
  <path id="lh-logo-crane-typo" d="M24,12A12,12,0,1,0,12,24,11.974,11.974,0,0,0,24,12Zm-.864,0A11.136,11.136,0,1,1,12,.864,11.159,11.159,0,0,1,23.136,12Zm-6.888-.72c-.264,0-.6,0-1.032.024l.312-.528h.5a24.743,24.743,0,0,1,4.368.312l.552-.528a28.052,28.052,0,0,0-4.7-.384H15.84l.264-.5h.456a26.1,26.1,0,0,1,4.872.432l.576-.552a29.109,29.109,0,0,0-5.568-.5q-1.274,0-2.544.12c-.96,2.063-2.5,3.264-4.224,3.24A6.34,6.34,0,0,1,7.08,11.52l-1.008-.576.312-.288,2.328,1.008.5-.384-4.7-2.136-.72.552L2.112,9l.024.7A27.128,27.128,0,0,1,7.7,13.008a23.279,23.279,0,0,0,9.7,4.176l1.008-.96h-.24a8.44,8.44,0,0,1-6.144-2.256,8.124,8.124,0,0,1,4.368-.983c.5,0,1.224.047,1.9.119l.576-.552a22.859,22.859,0,0,0-2.712-.168q-.913,0-1.824.072l.432-.528q.767-.046,1.536-.048a19.278,19.278,0,0,1,3.072.192l.552-.528a24.277,24.277,0,0,0-3.672-.264Z" fill="#fff"/>
</svg>
